<svg 
          width="52.673763275146484" 
          height="52.673763275146484" fill="none" 
          xmlns="http://www.w3.org/2000/svg">
          <path d="M 50.479023138682045 6.5842204093933105 L 40.96848254733615 6.5842204093933105 L 40.96848254733615 2.4690826535224915 C 40.96848254733615 1.1007993300729382 39.98999425393799 0 38.77374241087172 0 L 13.900020864274767 0 C 12.683769021208498 0 11.70528072781033 1.1007993300729382 11.70528072781033 2.4690826535224915 L 11.70528072781033 6.5842204093933105 L 2.1947401364644366 6.5842204093933105 C 0.9784882933981671 6.5842204093933105 0 7.685019739466249 0 9.053303062915802 L 0 14.814495921134949 C 0 18.48725644673968 2.057568877935409 22.26289502379106 5.660600741502346 25.17435490757964 C 8.54119717061192 27.509695662526354 12.043635870928407 28.991144872000984 15.719825669275249 29.464385704114875 C 18.591277312931766 34.82435247415657 21.947401364644367 37.03623980283737 21.947401364644367 37.03623980283737 L 21.947401364644367 44.443487763404846 L 17.557921091715492 44.443487763404846 C 14.32982421076796 44.443487763404846 11.70528072781033 46.57307163055802 11.70528072781033 50.20468062162399 L 11.70528072781033 51.43922194838524 C 11.70528072781033 52.11821966829267 12.19909726723594 52.673763275146484 12.802650796042547 52.673763275146484 L 39.871112479103935 52.673763275146484 C 40.47466600791054 52.673763275146484 40.96848254733615 52.11821966829267 40.96848254733615 51.43922194838524 L 40.96848254733615 50.20468062162399 C 40.96848254733615 46.57307163055802 38.34393906437852 44.443487763404846 35.115842183430985 44.443487763404846 L 30.726361910502114 44.443487763404846 L 30.726361910502114 37.03623980283737 C 30.726361910502114 37.03623980283737 34.08248596221472 34.82435247415657 36.95393760587123 29.464385704114875 C 40.63927201524886 28.991144872000984 44.14170879692033 27.509695662526354 47.01316044057684 25.17435490757964 C 50.607047344268445 22.26289502379106 52.673763275146484 18.48725644673968 52.673763275146484 14.814495921134949 L 52.673763275146484 9.053303062915802 C 52.673763275146484 7.685019739466249 51.69527498174831 6.5842204093933105 50.479023138682045 6.5842204093933105 Z M 9.080737593697247 19.834964297257443 C 6.849418489842858 18.02430364542927 5.852640363905165 16.007885909582498 5.852640363905165 14.814495921134949 L 5.852640363905165 13.168440818786621 L 11.723569949871893 13.168440818786621 C 11.81501745555791 16.52227793284129 12.253965761926437 19.46460127130888 12.894098301728565 22.03656236872814 C 11.513240930985235 21.50159448008744 10.223831414772475 20.760870292328377 9.080737593697247 19.834964297257443 Z M 46.82112291124132 14.814495921134949 C 46.82112291124132 16.470838907117965 45.20250321178581 18.528408079390964 43.59302707682743 19.834964297257443 C 42.44993325575221 20.760870292328377 41.151377035441364 21.50159448008744 39.770519664698035 22.03656236872814 C 40.41065220450016 19.46460127130888 40.84960190624689 16.52227793284129 40.94104941193291 13.168440818786621 L 46.82112291124132 13.168440818786621 L 46.82112291124132 14.814495921134949 Z" fill="rgb(255,215.0000023841858,0)"/>
        </svg>